<svg id="Layer_1" data-name="Layer 1" xmlns="http://www.w3.org/2000/svg" viewBox="0 0 1200 1200"><defs><style>.cls-1{fill:#786fef;}.cls-2{fill:#f0eff4;}.cls-3{fill:#908df7;}</style></defs><title>ndmc_logo_d</title><path class="cls-1" d="M600.09,25.07c318-.57,576.13,259.46,574.9,577-1.2,310.87-251.67,570.37-570.65,572.89C283.58,1177.45,23.62,917.44,25,597.47,26.38,279.44,285.3,24.32,600.09,25.07ZM1170.74,600.4c0-315.39-255.17-571-570.27-571.15C285.88,29.07,31,283.81,29.36,597c-1.61,315.7,254,572.61,568.82,573.7C916.76,1171.77,1170.9,912.94,1170.74,600.4Z"/><path class="cls-1" d="M599.65,1176.44A576.69,576.69,0,0,1,377,68.08a570.54,570.54,0,0,1,223-44.52h1.05a572.93,572.93,0,0,1,406.63,169.09,576.16,576.16,0,0,1,2.13,812.5c-107.74,109.22-251.77,170-405.55,171.26ZM598.72,26.56c-314.31,0-570.85,255.81-572.21,570.91-.67,154.6,59.24,299.81,168.7,408.87s254.65,168.3,409.13,167.07c312.63-2.47,568-258.8,569.16-571.4.59-153.56-59-298.19-167.84-407.24C897.39,86.28,753.75,26.57,601.14,26.57h-2.42Zm1.51,1145.61h-2.06a572.37,572.37,0,0,1-220-1099.71,568.11,568.11,0,0,1,222-44.71h.33A572,572,0,0,1,1172.24,600.4h0a571.4,571.4,0,0,1-572,571.78ZM600.14,30.75C287.78,30.75,32.45,284.68,30.86,597c-.77,152.07,57.85,295.39,165.09,403.54s250.15,168.12,402.24,168.64h2c151.67,0,294.18-58.86,401.53-165.9,108.09-107.77,167.58-250.85,167.5-402.88h0c0-313.93-255.15-569.47-568.77-569.65Z"/><path class="cls-1" d="M600.1,128.23c260.36,0,471.78,211.55,471.67,471.8-.11,261.67-213.24,472.88-473.94,471.61C340.55,1070.39,131.21,862.28,128.37,605,125.47,341.45,338.78,128.11,600.1,128.23Zm.18,4.31C343.67,132.07,133.43,340.19,132.6,598c-.84,258.7,208.59,468.49,465.78,469.41,258.63.93,468.15-208.56,469.15-465.6C1068.52,342.53,857.56,132.12,600.27,132.54Z"/><path class="cls-1" d="M600.2,1073.15h-2.38a473.31,473.31,0,0,1-183-908.76,469.56,469.56,0,0,1,185.06-37.65h.24a473.33,473.33,0,0,1,182.43,909.9A469.44,469.44,0,0,1,600.2,1073.15Zm-.34-943.42c-126.42,0-245.09,49.57-334.17,139.59S128.48,478.44,129.87,605c2.81,255.26,212.73,463.94,468,465.19h2.36c125,0,242.6-48.57,331.42-136.92C1021,844.35,1070.21,726,1070.27,600c.05-125.48-48.85-243.54-137.72-332.43S725.61,129.73,600.1,129.73h-.24Zm.21,939.17h-1.71C339.88,1068,130.26,856.72,131.1,598,131.93,340.34,342,131,599.42,131H601a462.43,462.43,0,0,1,181.52,36.81,469.1,469.1,0,0,1,286.46,434C1068,859.71,857.8,1068.88,600.08,1068.9ZM599.42,134C343.58,134,134.92,342,134.1,598c-.83,257.08,207.45,467,464.28,467.91h1.7c256.1,0,465-207.84,465.94-464.11.48-124.82-47.93-242.35-136.31-330.93C841.65,182.61,725,134,601,134h-1.62Z"/><path class="cls-2" d="M662,1124.61c.72-4.78,1.48-9.56,2.15-14.34.82-5.83,1.62-11.66,2.33-17.51.29-2.38,1.43-3.52,3.87-3.63,2.69-.13,5.37-.46,8-.79,3.9-.48,4.4-.18,4.82,3.63,1,9.73,2,19.46,3.06,29.19.61,5.86,1.19,11.72,1.88,17.57.26,2.23-.43,3.2-2.78,3.53-6.52.92-6.72.81-7.4-5.86-.94-9.33-2-18.66-3-28a7.15,7.15,0,0,0-1.3-3.45q-1.16,9-2.33,17.92c-.79,6-1.62,12.07-2.34,18.11-.28,2.3-1.46,3.24-3.72,3.42-6.77.53-6.77.58-9.1-6q-4.67-13.11-9.35-26.21a8,8,0,0,0-2.14-3.45c.35,4.16.63,8.33,1.07,12.48.78,7.35,1.64,14.68,2.49,22,.2,1.75-.19,2.75-2.22,3.07-6.71,1.08-7.11.93-7.86-5.82-1.62-14.58-3.1-29.19-4.75-43.77-.32-2.81.49-4.1,3.4-4.22a64.85,64.85,0,0,0,7.73-.85c2.82-.46,4.45.47,5.44,3.26,3.19,9,6.56,18,9.9,27a28.5,28.5,0,0,0,1.39,2.79Z"/><path class="cls-2" d="M529.84,1122.12a14.15,14.15,0,0,0,1.18-1.93c3.72-9,7.47-18.07,11.08-27.15,1.14-2.87,2.75-4.14,5.95-3.34a60.85,60.85,0,0,0,8,1.23c2.22.25,3.2,1.18,2.85,3.53q-3.54,23.84-7,47.69c-.3,2-1.29,2.91-3.47,2.67-6.18-.66-6.72-1.29-5.79-7.5q2.23-15,4.45-29.91a2,2,0,0,0-.39-1.6,17.15,17.15,0,0,0-1.25,2.16c-4.05,10.09-8.11,20.18-12.08,30.3-.92,2.35-2,4-5,3.64-5.51-.72-6.66-1.37-7-5.18-1-10.83-1.94-21.68-2.9-32.52a3.6,3.6,0,0,0-.94-2.35c-.27,1.25-.62,2.49-.81,3.76-1.59,10.36-3.22,20.71-4.67,31.09-.28,2-1.05,2.63-2.88,2.28-7.27-1.41-7.45.67-6.19-7.8q3.21-21.62,6.5-43.23c.54-3.55.9-3.81,4.48-3.3,2.67.38,5.33.79,8,1.15a4,4,0,0,1,3.91,4.09c.87,9.65,1.86,19.28,2.81,28.92.1,1.06.26,2.12.39,3.17Z"/><path class="cls-2" d="M621.86,74.27c-.49,1.74-1,3.47-1.47,5.23-2.32,9.7-4.68,19.39-6.87,29.12-.63,2.79-1.82,4.07-4.87,3.9-6.33-.35-5.86,1.23-7.52-6-2.29-10-4.73-20-7.13-30a3.89,3.89,0,0,0-1.39-2.3q0,1.57,0,3.14c0,10.39-.1,20.77.06,31.16,0,3.06-1.07,4.22-4,4-.3,0-.6,0-.9,0-5,0-5.06-.07-5.06-4.91,0-15.18.11-30.36,0-45.54,0-2.87,1-4,3.83-3.85a77.66,77.66,0,0,0,8.09,0c2.78-.16,4.13,1,4.76,3.71,1.88,8.17,3.94,16.29,6,24.41.5,2,1.25,3.87,1.88,5.81l.92,0q1.85-7.28,3.7-14.56c1.39-5.51,2.83-11,4.1-16.55.47-2,1.5-2.82,3.53-2.77,3.29.09,6.59,0,9.88,0,1.92,0,3,.78,3,2.86q-.06,24.27-.07,48.54c0,2-1,2.8-3,2.87-6.74.26-6.74.3-6.75-6.54q0-15.28,0-30.56,0-.51,0-1Z"/><path class="cls-2" d="M101.72,451.4c.85.36,1.68.78,2.56,1.07,9.85,3.24,19.68,6.54,29.57,9.65,2.57.81,3.48,2,2.4,4.54-.76,1.81-1.39,3.68-2.19,5.82L82.72,455.65c1.52-4.61,2.88-9.15,4.61-13.53.27-.7,2.24-1.1,3.38-1,9.36.62,18.72,1.39,28.07,2.09a11.36,11.36,0,0,0,4.64-.42,19.74,19.74,0,0,0-2.09-1.73c-8.21-5.13-16.45-10.21-24.66-15.33-3.22-2-3.41-2.79-2.11-6.39.95-2.62,1.78-5.29,2.65-7.94.61-1.84,1.67-2.44,3.64-1.78q23,7.62,46,15.12c2.06.67,2.57,1.8,1.85,3.85-2.55,7.21-1,6.5-8.15,4.24-9.5-3-19-6.14-28.45-9.22a2.7,2.7,0,0,0-2,0c.63.46,1.22,1,1.88,1.37,9.6,5.92,19.17,11.88,28.84,17.68,2,1.21,2.57,2.35,1.75,4.57-2.57,6.94-1,6.89-9.31,6.09-9.14-.88-18.29-1.65-27.44-2.43-1.32-.11-2.67,0-4,0Z"/><path class="cls-2" d="M96,729a10.07,10.07,0,0,0,1.93.3c10.88-.38,21.76-.72,32.64-1.23,2.9-.14,4.58.47,5.28,3.68,1.23,5.72,1.37,5.88-2.31,7.9q-13.9,7.66-27.8,15.34a4.31,4.31,0,0,0-2.1,2.17l16.89-4.61c5.58-1.53,11.2-2.95,16.72-4.66,2.27-.71,3.13,0,3.56,2.06.16.78.46,1.53.66,2.3.8,3.16.26,4.29-3.08,5.28-6.69,2-13.43,3.82-20.15,5.71q-12,3.36-23.92,6.71c-3.71,1-4.07.84-5.11-2.74-.75-2.59-1.39-5.21-2.21-7.77-.76-2.38-.13-3.89,2.11-5.14,8.38-4.66,16.67-9.46,25-14.22.76-.43,1.46-1,2.72-1.81-1.32-.12-2-.26-2.77-.25-9.79.09-19.58.12-29.37.36-2.71.07-4-.87-4.58-3.5a74.44,74.44,0,0,0-2.18-7.78c-.81-2.49-.18-4,2.47-4.69,15.1-4.15,30.18-8.37,45.28-12.56,3.06-.85,4-.35,4.76,2.68,1.66,6.59,1.89,5.56-4,7.23-8.92,2.54-17.88,5-26.82,7.47-1.24.34-2.45.76-3.68,1.15Z"/><path class="cls-2" d="M994.25,938.64c4,.25,7.82-.1,11.26.82,8.66,2.33,13.12,14,7.75,21.14-5.88,7.78-12.66,14.89-19.08,22.26-1.55,1.78-2.82.52-4-.59l-28.45-25.7c-2.37-2.14-4.71-4.32-7.14-6.39-1.63-1.39-1.83-2.63-.31-4.26,5.23-5.63,10.34-11.37,15.61-17,2.95-3.13,6.45-5.3,11-5.32A12.88,12.88,0,0,1,994,935.68C994.1,936.77,994.19,937.85,994.25,938.64Zm2.84,9c-.62.21-2,.26-2.8,1-3.68,3.59-7.22,7.33-10.67,11.14a2.64,2.64,0,0,0,.38,2.49,99.51,99.51,0,0,0,7.46,6.86A2.56,2.56,0,0,0,994,969c3.29-3.58,6.52-7.23,9.56-11a5.71,5.71,0,0,0,.27-6.74C1002.45,948.94,1000.35,947.79,997.09,947.62Zm-21.56,7.18c3.34-4,6.44-7.5,9.29-11.2,2.12-2.75,1.75-5.48-.61-7.75s-5.14-2.72-7.73-.33a101.36,101.36,0,0,0-8.7,9.4,3,3,0,0,0,.25,2.92C970.28,950.2,972.79,952.3,975.53,954.8Z"/><path class="cls-2" d="M314.75,995.9c7.92,5.71,15.41,10.85,22.6,16.37,6.69,5.14,8,11,4.75,17.87-3.48,7.29-9.71,10.28-17.75,8.52-.75-.16-1.52-.27-1.93-.35V1066l-1.1.68c-3.07-2.2-6.19-4.33-9.15-6.66-.5-.39-.43-1.67-.41-2.54.11-6.19.22-12.38.45-18.56.15-4-1.53-6.86-4.63-9.18-1.64-1.23-2.69-1.18-3.88.59-3.11,4.64-6.43,9.14-9.5,13.82-1.25,1.9-2.42,2.51-4.29,1a5,5,0,0,0-.79-.42c-5.58-3-5.61-4.46-1.87-9.56,6.95-9.5,13.5-19.29,20.23-29C309.79,1002.89,312.15,999.58,314.75,995.9Zm-4.69,25.2c4.73,2.94,9,5.84,13.52,8.31,3,1.63,6,.38,7.89-2.68s1.69-5.9-1-8c-4-3.12-8.14-6-12.46-9.14Z"/><path class="cls-2" d="M204.65,936.57l2.7-2.09q10.25-8.05,20.49-16.1c3.51-2.75,3.76-2.69,6.48,1.06.93,1.28,1.93,2.51,3.05,4L220.13,937c-7.77,6.11-15.58,12.17-23.29,18.36-1.52,1.22-2.35,1.13-3.71-.21-3.84-3.8-4.78-7.78-2.54-13,3.87-9,7.21-18.17,10.77-27.27.28-.72.51-1.46,1.06-3.07a39.74,39.74,0,0,0-3.45,2.1q-10.15,7.93-20.26,15.92c-3.09,2.43-3.72,2.37-6-.71-3.54-4.83-4-4.06,1-7.94,11.36-8.82,22.62-17.75,33.94-26.63,1.32-1,2.69-2,4.38-3.29,2,2.45,4,4.67,5.57,7.15.48.75.1,2.31-.3,3.33-4.1,10.5-8.28,21-12.42,31.45-.38,1-.62,2-.92,3Z"/><path class="cls-2" d="M1084.29,496c-.92-3.25-2-6.46-2.63-9.77-.2-1.1.68-2.66,1.51-3.63,3.91-4.54,8-9,12-13.38a10.06,10.06,0,0,0,2.53-9.67c-.52-2.28-1.65-2.92-3.87-2.28-5.27,1.51-10.6,2.84-15.86,4.38-2.11.62-3.09,0-3.77-2.06-2.35-7.1-2.4-7.09,4.65-9,14.06-3.82,28.13-7.57,42.16-11.49,2.73-.76,4-.21,4.71,2.61,1.86,7.65,4.17,15.2,5.84,22.9,1.81,8.37-.88,13.72-7.77,16.82-7.63,3.43-13.91,1.89-19.12-4.68-.47-.59-1-1.14-1.08-1.21l-18.27,20.87Zm38.07-31.05c-1.08-3.8-2.32-8.4-3.78-12.94-.15-.47-1.66-.87-2.41-.7a67.86,67.86,0,0,0-8.6,2.44,3,3,0,0,0-1.5,2.48,119.46,119.46,0,0,0,3.74,12.55c1.24,3.34,3.82,4.4,7.21,3.59S1122.39,469.13,1122.36,464.91Z"/><path class="cls-2" d="M1095.44,741.38l20.08,5.44c3.56,1,7.1,2,10.69,2.87,1.52.36,1.83,1.06,1.66,2.53-.81,6.76-1.68,7.39-8.29,5.65-14.17-3.74-28.33-7.55-42.53-11.18-2.75-.7-3.37-1.82-2.91-4.63.75-4.53,2.93-6.92,7.47-8,9.3-2.26,18.48-5,27.71-7.55a9.81,9.81,0,0,0,4.05-2.08c-4-1.09-7.95-2.2-11.93-3.26-5.49-1.47-11-3-16.49-4.33-2.64-.64-3.65-1.69-2.75-4.58,2-6.46,1.16-5.95,7.3-4.31q21.39,5.69,42.8,11.35c3.94,1,3.75,1.23,3.13,5.13-.75,4.72-3.49,6.53-7.86,7.57-9.7,2.31-19.28,5.08-28.91,7.69-1.1.3-2.17.73-3.26,1.1Z"/><path class="cls-2" d="M934.86,211.9l13-16c2.2-2.71,4.44-5.39,6.58-8.16,1.09-1.42,2.15-1.59,3.5-.44.6.52,1.3.93,1.91,1.44,3,2.49,3.22,3.66.75,6.74-9.78,12.24-19.65,24.4-29.47,36.61-1.16,1.45-2.16,1.45-3.78.47-4.58-2.77-6.2-6.33-5.11-11.78,1.82-9.09,3-18.31,4.42-27.47.19-1.25.18-2.53.32-4.55a26.84,26.84,0,0,0-2.08,2c-5.75,7-11.53,14-17.17,21.15-1.69,2.13-3.11,2.39-5.18.61-5.18-4.47-5.18-3.43-1-8.57,9.31-11.34,18.48-22.79,27.72-34.18,2.61-3.22,2.66-3.16,6-1,3.76,2.49,4.6,5.86,3.84,10.14-1.79,10-3.36,20.06-5,30.1a16.12,16.12,0,0,0,0,2.55Z"/><path class="cls-2" d="M662.4,91.72c.22-6.68,2.06-14.93,8.57-21.44A25.39,25.39,0,0,1,704.83,69a18.61,18.61,0,0,1,6.12,11.37c.32,1.86-.26,2.91-2.32,2.81a11.55,11.55,0,0,0-2.69.07c-3.3.62-5.14-.37-6.57-3.77-3.37-8-16.41-8.87-21.61-1.54a24.84,24.84,0,0,0-3.26,23.95c3.63,9.88,15.25,9.87,21.44,5.86,1.43-.93,1.67-3.83,2.2-5.88.09-.33-1.1-1.29-1.82-1.47a32.32,32.32,0,0,0-6.19-1c-2.26-.1-3-1.24-2.93-3.24a14.62,14.62,0,0,1,.15-1.79c.65-4.38,1-4.65,5.29-4,4.94.73,9.86,1.58,14.8,2.27,2.06.29,2.72,1.29,2.41,3.26-.87,5.52-1.56,11.08-2.61,16.56a5.46,5.46,0,0,1-2.56,3.39c-8.88,4.46-18.07,5.59-27.47,1.69C667.14,113.35,662.18,105.35,662.4,91.72Z"/><path class="cls-2" d="M267.43,966.2c-1.42,10.05-8.56,19-20.07,24.34-15.17,7.07-33.84-3.77-34.8-20.52-.66-11.52,5.44-20.19,14.69-26.53,6.53-4.48,13.68-7,21.78-4.77C259.45,941.62,267.79,952.73,267.43,966.2Zm-44.62,2.58c.33,9.63,8.81,16.11,17.61,13a26.42,26.42,0,0,0,16.3-16.1c1.81-4.72.45-9-2.92-12.7s-7.75-5.75-12.9-4.2c-7.7,2.31-13.06,7.49-16.49,14.65A34.32,34.32,0,0,0,222.82,968.78Z"/><path class="cls-2" d="M92.72,686.51c-17.76.41-29.55-12.79-25.77-32.45,1.12-5.84,5-9.58,10.22-12.12,1.74-.85,2.84-.49,3.42,1.39.35,1.14.74,2.28,1.19,3.38a4.63,4.63,0,0,1-1.45,5.89c-4.46,3.54-5.65,8.09-4,13.37,1.71,5.45,5.51,8.62,11.15,9.6A27.84,27.84,0,0,0,105,673c11.63-5.77,9-18.74,2.35-24.45-1.12-1-3.9-.33-5.79.1-.54.12-.9,2.1-.91,3.24a21.07,21.07,0,0,0,.63,4.72c.54,2.4-.42,3.63-2.75,4l-.29.05c-5.52,1-5.83.76-6.5-4.82-.54-4.46-1-8.94-1.67-13.37-.38-2.4.23-3.53,2.73-3.82,5.15-.59,10.26-1.55,15.43-2a6.93,6.93,0,0,1,4.88,1.65c9.81,9.73,13.13,27.25,4.26,38C111,683.91,102.28,686.4,92.72,686.51Z"/><path class="cls-2" d="M964.48,262.27c-2.47-1-5.92-1.52-8.2-3.44-6.48-5.44-12.5-11.42-18.65-17.25-1.57-1.49,0-2.54.91-3.47q10.84-11,21.75-21.9c4.08-4.11,8.22-8.17,12.21-12.36,1.48-1.56,2.58-1.81,4.17-.17,4.72,4.88,9.61,9.59,14.3,14.5,5.53,5.79,6.64,12.48,3.67,19.91-4.45,11.13-12.27,18.74-23.61,22.64C969.15,261.37,967.17,261.65,964.48,262.27ZM975,215c-7.88,8.34-15.41,16.33-23,24.31-1,1.06-1.59,2-.26,3.28,2.64,2.43,5.14,5,7.91,7.31a8.08,8.08,0,0,0,9.54.73,38.15,38.15,0,0,0,15.34-15.18c2.15-3.88,1.95-7.71-1-11.13C981.21,221.55,978.62,218.93,975,215Z"/><path class="cls-2" d="M447.89,1083.78a38,38,0,0,1-12.55,26,16.92,16.92,0,0,1-17.33,3.63c-7-2.29-13.87-5-20.8-7.53-1.63-.6-2-1.6-1.4-3.27q8.86-23,17.62-46.08c.63-1.65,1.47-2.21,3.16-1.55,6.12,2.4,12.27,4.75,18.4,7.12C443.64,1065.51,447.77,1071.93,447.89,1083.78Zm-39.71,16.38c3.9,1.4,7.49,2.9,11.19,4,5,1.42,8.08.13,11.09-4.16a40.64,40.64,0,0,0,6.92-18c.69-4.89-1.26-8.55-5.74-10.81-2.58-1.3-5.36-2.18-8-3.43-2-1-3.1-.49-3.87,1.57C416,1079.38,412.22,1089.45,408.18,1100.16Z"/><path class="cls-2" d="M258.7,190.41c3,.84,6.29,1.24,9.07,2.6A36,36,0,0,1,287,214.87c3.11,9.61.07,17.83-7.15,24.35-7.46,6.74-16.34,8.47-25.62,4.44a33.94,33.94,0,0,1-19.5-21.9C230,206.42,242.06,191.08,258.7,190.41Zm18.94,32c0-8.59-10.32-20.19-18.81-21.25-8.89-1.1-16.64,6.93-14.53,15.47,2.21,8.95,7.84,15.2,16.64,18.14A12.81,12.81,0,0,0,277.63,222.43Z"/><path class="cls-2" d="M1118.15,704.42c-9.28-.13-17.92-2.18-24.46-9.28-7-7.65-7.16-16.59-3.7-25.78,3.4-9,10.22-13.78,19.72-14.7a39.49,39.49,0,0,1,20.44,3.44c11,5,15.89,15,13.43,27.1-2.38,11.67-11.11,19-23,19.21C1119.75,704.43,1118.95,704.42,1118.15,704.42Zm-5.58-39.2a37.71,37.71,0,0,0-5.52.93,13.07,13.07,0,0,0-5.9,21.63c5.66,5.84,19.51,8,26.63,4.19a13.11,13.11,0,0,0,1.6-22.05C1124.69,666.47,1119.22,665.48,1112.57,665.22Z"/><path class="cls-3" d="M1078.17,859.66c1.52.07,2.7.08,3.88.18,3.35.3,4,1.19,4,4.62,0,3-1.75,3.65-4.31,3.6-4-.08-8,.13-12-.1-1.52-.09-4-.73-4.28-1.64-.59-2-.14-4.37.09-6.57.06-.56.8-1.15,1.37-1.53,9.49-6.42,10.37-15.78,8.6-25.84-1.64-9.33-8.55-13.78-17.76-11.79-5,1.09-8.1,4.44-10,9.07-3.8,9.44-.87,21.18,6.8,27.9a10.37,10.37,0,0,1,3.09,4.21c1.24,3.79-.75,6.23-4.71,6.25-4.3,0-8.59,0-12.89.06-2.79.07-3.64-1.43-3.77-3.89s.55-4.14,3.32-4.3c1.46-.08,2.91-.19,4.77-.32-3.83-4.6-6.77-9.34-7.52-15-1.88-14.19,3.16-27.61,18.13-32,15.51-4.52,29.64,5.42,30.71,21.5C1086.45,845.21,1085.15,849.71,1078.17,859.66Z"/><path class="cls-2" d="M389.39,1043.41c-1.48,2.33-2.78,4.55-4.31,6.6-.2.27-1.65-.17-2.36-.56-6.14-3.33-12.25-6.71-18.35-10.1-3.54-2-3.53-2-5.52,1.68a29.45,29.45,0,0,1-2.06,3.64c-1.76,2.36-.87,3.74,1.41,5,5.37,2.85,10.74,5.71,16,8.75,1.12.65,2.75,2.44,2.51,3.06a27.14,27.14,0,0,1-3.88,6.18c-.18.24-1.64-.33-2.4-.74-5.6-3.06-11.22-6.1-16.74-9.3-2.4-1.39-3.79-.92-4.93,1.56a49.93,49.93,0,0,1-3.62,6.54c-1.45,2.21-1,3.49,1.3,4.72,6.52,3.47,12.91,7.16,19.43,10.61,2.19,1.16,2.66,2.45,1.36,4.49a13.53,13.53,0,0,0-.64,1.35c-1.65,3.39-2.47,3.74-5.76,2-6.76-3.64-13.47-7.38-20.21-11.07-2.62-1.44-5.24-2.9-7.9-4.27-2.11-1.08-2.62-2.48-1.43-4.62q11.69-21.06,23.31-42.16c1-1.73,2.21-2.18,4-1.22q14.55,8,29.08,16C388.28,1041.89,388.68,1042.63,389.39,1043.41Z"/><path class="cls-2" d="M775.67,1062.89l9.12-3.82c2.4,5.52,4.92,10.7,6.89,16.08,1.11,3,2.46,3.26,5.07,2,3.88-1.82,7.83-3.51,11.84-5,2.66-1,3-2.44,1.87-4.84-1.94-4.26-3.6-8.66-5.57-12.91-1-2.12-1-3.56,1.42-4.46.65-.25,1.24-.65,1.87-.95,4-1.91,5.21-1.57,7,2.49,6.12,14.31,12.11,28.67,18.21,43,.79,1.86.54,2.95-1.42,3.72-8.83,3.48-6.63,3.94-10.06-3.81q-2.61-5.88-5-11.88c-.91-2.35-2.15-3.05-4.57-1.94-4.16,1.92-8.4,3.69-12.66,5.39-2.16.86-2.63,2.06-1.7,4.16,2.34,5.29,4.51,10.65,6.86,15.93.86,1.92.63,3.21-1.4,4-.92.38-1.77.93-2.68,1.31-3.26,1.35-4.56,1-6-2.22-6.45-15-12.76-30.12-19.11-45.19A4.72,4.72,0,0,1,775.67,1062.89Z"/><path class="cls-2" d="M179.58,317.75l14.08,9.81c5.29,3.68,5.35,4,1.43,9.28-.65.87-1.33,1.72-2.2,2.84-4-2.74-7.93-5.43-11.84-8.14-10-6.94-20-13.94-30.06-20.79-1.91-1.3-2.44-2.43-1-4.32a15.8,15.8,0,0,0,.87-1.57c2.51-4.31,4.4-4.56,8.3-1.55s8.24,6,12.65,9.12c3.51-5,6.94-9.9,10.3-14.81,1.11-1.63-.13-2.57-1.32-3.39-4-2.78-8-5.61-12.11-8.29-2-1.32-2.83-2.64-1.14-4.78.61-.77.93-1.77,1.48-2.59,1.85-2.74,3.62-3.08,6.27-1.2,12.65,8.91,25.26,17.88,38,26.69,2.27,1.57,3.05,2.91,1.12,5.18a17.94,17.94,0,0,0-1.22,2.06c-2,3.08-3.67,3.33-6.66,1.16-4.27-3.12-8.63-6.12-12.88-9.28-1.93-1.43-3.21-1.37-4.6.79C186,308.56,182.84,313,179.58,317.75Z"/><path class="cls-2" d="M390.41,126.15c6.37-2.77,12.54-5.52,18.78-8.13,1.39-.58,3.94-1.38,4.3-.89a23.12,23.12,0,0,1,3,6.67c.13.42-1.28,1.61-2.18,2-5.63,2.57-11.31,5-17,7.5L394,134.79c1.7,4,3.17,7.85,5.09,11.5.35.67,2.72.91,3.8.47Q413,142.63,423,138c2.18-1,3.16-.58,4.08,1.58,3,7,2.58,5.61-3,8.08-8.75,3.89-17.54,7.71-26.32,11.56-3.25,1.43-4.06,1.12-5.49-2.18-5.14-11.8-10.25-23.62-15.42-35.41-1-2.19-2.25-4.23-3.25-6.4-1.45-3.13-.62-5.08,2.57-6.42,9.1-3.83,18.23-7.6,27.28-11.55,2.59-1.13,4.18-.8,5,2a10,10,0,0,0,.83,1.92c1.27,2.27.63,3.6-1.78,4.59-6.18,2.55-12.28,5.28-18.41,7.95-3.36,1.46-3.58,2.13-2,5.43C388.21,121.41,389.24,123.66,390.41,126.15Z"/><path class="cls-2" d="M566.63,1119.57c.34-8.18.72-16.36,1-24.54.07-2,.84-2.87,2.91-2.79,10.87.44,21.75.81,32.63,1.2,2.16.08,2.89,1.14,2.79,3.29-.26,5.93-.19,6-6.1,5.79-6.29-.19-12.57-.41-18.85-.74-2.3-.12-3.31.63-3.24,3,0,1.58-.4,3.17-.48,4.76-.16,3.18,1,4.36,4.18,4.44q9,.22,18,.48c3.7.11,4,.4,3.73,4-.06.9-.16,1.79-.15,2.69,0,2.09-1,2.73-3,2.62-6.38-.34-12.76-.55-19.15-.82-3.31-.14-4,.55-4,3.92,0,2.4.1,4.81-.15,7.18-.32,3,1.31,3.57,3.74,3.64,6.79.21,13.57.42,20.35.78,1.46.08,4,.65,4.12,1.27a25.68,25.68,0,0,1-.43,7.33c-.05.35-1.58.68-2.42.65-11-.39-21.94-.9-32.92-1.24-2.59-.08-3.48-1-3.34-3.6.42-7.78.65-15.56,1-23.34Z"/><path class="cls-2" d="M347.44,147.81c1.44-.66,2.56-1.08,3.6-1.65,5-2.73,10-5.42,14.92-8.28,1.85-1.08,3.09-1.16,4,1,.28.64.71,1.2,1,1.81,1.65,3,1.48,4.07-1.55,5.83-5.09,3-10.27,5.76-15.43,8.6-3.09,1.7-3.2,2.05-1.48,5,1.24,2.16,2.57,4.29,3.61,6.55,1.12,2.45,2.57,2.63,4.75,1.39,6.16-3.5,12.43-6.82,18.55-10.39,2.37-1.38,3.71-1.41,5.1,1.31,2.61,5.1,2.75,5-2.24,7.75-8.56,4.73-17.1,9.5-25.66,14.25-3.17,1.76-3.62,1.63-5.36-1.52-7.69-13.88-15.33-27.79-23.11-41.62-1.17-2.08-.57-3,1.21-4,9.18-5.06,18.32-10.18,27.49-15.25,2.75-1.52,3.47-1.2,5.32,2,2.14,3.75,2.13,4.42-.79,6.1-5.45,3.13-11,6.12-16.48,9.17-4.38,2.42-4.39,2.42-2,6.94a16.59,16.59,0,0,0,2,3.31A10.48,10.48,0,0,0,347.44,147.81Z"/><path class="cls-2" d="M1084.55,347a14.4,14.4,0,0,1-6.63,12.66,2.45,2.45,0,0,1-2.07.34c-3.29-1.87-4.6-7.63-2.61-10.9,2.73-4.48-.57-12.76-5.61-14.1-3.33-.88-6,1.47-5.59,5.34.32,3.16,1.2,6.26,1.78,9.39a80.55,80.55,0,0,1,1.58,9.42c.41,6.5-2.9,11-8.39,14s-11,3.4-16.49,0c-8.29-5.14-13.61-17.68-11.17-25.93,1.22-4.11,3.91-7.13,7.12-9.76a2.54,2.54,0,0,1,1.87-.58c2.78.67,5.15,7.32,3.43,9.58-3.06,4-3.9,8.37-1.34,12.83A15,15,0,0,0,1045,364a5.94,5.94,0,0,0,7.28-.19c2.31-1.72,2.58-4.09,2-6.72-1-4.77-2.12-9.54-3-14.34a15,15,0,0,1,7.54-15.95,14.52,14.52,0,0,1,16.94,2.18A25.4,25.4,0,0,1,1084.55,347Z"/><path class="cls-2" d="M1027.74,258.33l6.09,7.94-16.88,13,11.94,15.8c4.86-3.61,9.56-7,14.11-10.52,2.1-1.64,3.51-1.62,5.17.62,4.9,6.57,4.37,5.24-1.14,9.39q-17.81,13.44-35.55,27c-2,1.54-3.11,1.27-4.59-.64-4.45-5.75-4.52-5.7,1.36-10.11,3.51-2.64,7-5.32,10.56-7.89,2.07-1.49,2.28-2.89.65-4.92-3.37-4.19-6.57-8.52-10.05-13.07l-18.83,14c-1.57-1.78-3.12-3.33-4.43-5.07-1.58-2.1-1.27-4.12.88-5.72q19.59-14.54,39.21-29.05A13.15,13.15,0,0,1,1027.74,258.33Z"/><path class="cls-2" d="M1138.31,491.78l6.07,34.91c.3,1.72-.46,2.51-2.15,2.91-6.12,1.46-6.62,1.22-7.69-4.86-1-5.6-1.86-11.23-2.75-16.85-.63-4-1.21-4.43-5.07-3.61-.59.12-1.17.26-1.76.35-5.7.84-5.8,1-4.81,6.58s1.76,10.84,2.72,16.24c.44,2.47-.31,3.65-2.9,4-5.79.87-5.77.93-6.68-5-.81-5.33-1.74-10.64-2.56-16-.36-2.34-1.53-3.31-3.91-2.87-2.65.49-5.31.92-8,1.32-2.34.35-3.21,1.51-2.77,3.94,1.3,7.07,2.36,14.18,3.72,21.23.53,2.75-.32,4-3,4.17a9.4,9.4,0,0,0-1.77.3c-2.76.73-4.06-.37-4.48-3.15-1.14-7.5-2.41-15-3.64-22.46-.49-3-.88-5.93-1.54-8.85-.56-2.47.3-3.39,2.72-3.79,13.79-2.28,27.55-4.7,41.33-7.06C1132.25,492.78,1135.1,492.31,1138.31,491.78Z"/><path class="cls-2" d="M90.64,586.5c7.59,0,15.17,0,22.76,0,3.85,0,4,.29,4.17,4,.39,6.71,0,6.31-6.3,6.4-4.49.06-9,.2-13.48.19-2.64,0-3.83,1.09-3.7,3.8.2,4.29.4,8.58.29,12.87-.07,2.89,1.19,3.59,3.78,3.53,5.59-.15,11.18,0,16.77-.19,2.29-.06,3.21.74,3.22,3.09,0,8.3.64,7.15-6.82,7.23-2.1,0-4.19,0-6.29,0-12.34.21-24.69.46-37,.64-4.1.06-4.11,0-4.28-4.16-.26-6.41-.26-6.42,6.11-6.46,4,0,8-.1,12,0,2.26,0,3.31-.9,3.23-3.21-.14-4.59-.22-9.18-.27-13.77,0-2.11-1-3.07-3.11-3-4.89.1-9.78,0-14.67.16-2.52.07-3.61-.9-3.66-3.48-.14-6.77-.21-6.8,6.64-6.83s13.77,0,20.66,0Z"/><path class="cls-2" d="M756.66,79.88c.32-.12.42-.18.51-.18,9.16,1,9.65,1.74,7.23,10.67q-5.44,20.07-10.84,40.14c-1,3.75-1.13,3.82-4.94,2.82-6.12-1.61-6.12-1.61-4.41-7.88,1.2-4.43,2.3-8.89,3.63-13.28.76-2.52,0-3.72-2.5-4.32-4.26-1-8.53-2.09-12.71-3.41-2.62-.83-3.67.14-4.27,2.51-1.35,5.32-2.89,10.58-4.15,15.92-.67,2.84-2.18,3.57-4.78,2.72-.66-.22-1.34-.39-2-.59-3.49-1.07-4-1.92-3.12-5.44,2.56-9.74,5.2-19.46,7.82-29.19,1.43-5.3,3-10.57,4.28-15.89.59-2.38,1.66-3,4.06-2.39,6.75,1.68,6.86,1.73,5,8.37-.95,3.46-1.79,7-2.83,10.39-.8,2.66-.09,4.12,2.72,4.78,4.08.95,8.14,2,12.12,3.28,2.66.85,3.93,0,4.58-2.54,1.26-4.93,2.59-9.84,3.91-14.75C756.2,81,756.49,80.37,756.66,79.88Z"/><path class="cls-2" d="M748.16,1129.07c-3,.71-5.19,1.24-7.41,1.78-2.95.72-5-.38-6.46-3-4.36-7.52-4.39-7.47-12.82-5.46-2.91.69-5.85,1.23-8.78,1.83a3.42,3.42,0,0,0-3.11,3.42c-.21,2.68-.56,5.36-1,8-.13.78-.65,2-1.22,2.12-3,.85-6.08,1.42-9.67,2.21,1-7.28,1.83-13.77,2.72-20.26,1.49-10.87,3.13-21.72,4.45-32.6.39-3.2,1.72-4.81,4.81-5.45,3.28-.68,6.39-1.71,8.78,2,6.63,10.2,13.39,20.31,20.07,30.48C741.66,1118.94,744.75,1123.79,748.16,1129.07Zm-33.39-32.95-.9.11L711,1115l13.59-3Z"/><path class="cls-2" d="M442.81,1122.24l23.5-33.35c2.53-3.59,5.12-7.14,7.54-10.81a4.35,4.35,0,0,1,5.39-2c1.15.33,2.3.68,3.46,1a5,5,0,0,1,4.22,4.76c.86,7.84,1.82,15.67,2.65,23.51,1,9,1.74,18.09,2.77,27.11.29,2.55-.38,3.38-2.86,2.73-1-.25-2-.33-2.94-.55-3.81-.85-4.81-2-5.28-5.81a21.9,21.9,0,0,1-.41-4.17c.26-3.56-1.39-5.23-4.78-5.95-4.49-.94-8.88-2.34-13.36-3.28a4,4,0,0,0-3.16,1.13,43.43,43.43,0,0,0-3.47,4.87c-2.7,3.78-4.22,4.24-8.66,2.64C446,1123.55,444.65,1123,442.81,1122.24Zm35.05-31.54-.94-.17-10.79,16.1,13.41,3.28Z"/><path class="cls-2" d="M172.33,375.36c-1.38,3.13-2.18,5.87-3.73,8.08a5.73,5.73,0,0,1-4.46,2c-9.41-.91-9.39-1-13.27,7.57-1.11,2.45-2.2,4.92-3.42,7.32a3.48,3.48,0,0,0,1,4.75,53.52,53.52,0,0,1,5.42,5.16,4.25,4.25,0,0,1,1.05,3.36,77.43,77.43,0,0,1-3.65,8,19.9,19.9,0,0,1-2.25-1.64C136.89,408,124.87,396,112.71,384.13c-2.17-2.11-2.59-4.07-1.13-6.6a11.76,11.76,0,0,0,1.11-2.45c.83-2.78,2.76-3.71,5.48-3.52,6.18.43,12.35.83,18.53,1.25l32,2.16C169.65,375,170.62,375.17,172.33,375.36Zm-46.46,6.78-.39,1.13,13.69,12.88,5.54-12.34Z"/><path class="cls-2" d="M1092.3,541.25c12.29,3.56,24.25,7,36.23,10.49,5.08,1.47,10.15,3,15.27,4.31a4.66,4.66,0,0,1,3.94,4.53c.71,6.52.14,7.7-5.78,10.42l-43,19.77c-2.88,1.33-3.27,1.11-3.89-2.08-1.27-6.5-.79-7.4,5.16-10.2,7-3.31,6.5-1.57,5.86-9.84-.26-3.38-.5-6.77-.64-10.16a3.59,3.59,0,0,0-3.1-3.78c-1.94-.44-3.88-1-5.78-1.57-3.67-1.18-4.67-2.55-4.63-6.33C1092,545,1092.18,543.27,1092.3,541.25Zm40.3,23.11.07-.95-18.09-5.5,1.15,13.71Z"/><path class="cls-2" d="M894.46,205.3a3.63,3.63,0,0,1-.68-.12c-8.68-5-8.74-5-6.24-14.71.66-2.56,0-4.12-2.21-5.48-3.84-2.33-7.6-4.8-11.28-7.36-2-1.38-3.64-1.36-5.35.27a2.44,2.44,0,0,1-.23.19c-9.07,6.75-5.54,7-16.27-.23,1.25-1.05,2.38-2.11,3.61-3q19.29-14.46,38.6-28.89c2.17-1.63,4.32-2.58,6.81-.83,2.87,2,6.35,3.52,5.27,8.29-3.75,16.43-7.32,32.9-11,49.35A16.7,16.7,0,0,1,894.46,205.3Zm-3.89-28,4.6-19-.69-.34-15.41,11.94Z"/><path class="cls-2" d="M536.29,116c-6.29,3.61-10.61,2.59-14.05-3.09-.57-.94-1.12-1.89-1.72-2.8a4.18,4.18,0,0,0-4.85-2c-4.48,1-9,1.83-13.49,2.68-2.27.43-3.59,1.57-3.54,4a10.82,10.82,0,0,1-.24,2.07c-1.32,7.55-1.32,7.55-8.92,8.91-.59.11-1.16.24-2.47.52a29.5,29.5,0,0,1,0-4.35c2.47-15.76,5-31.51,7.51-47.26.73-4.64,1.45-5.62,5-6.39,5.84-1.26,6.88-.9,9.56,3.42Q521.55,91.85,534,112C534.75,113.23,535.45,114.55,536.29,116ZM504.13,82.79l-1.2.29-2.38,18.6,13.34-2.6Z"/><path class="cls-2" d="M923.09,975.72c5,5.52,10,11.07,15,16.59,3.23,3.54,6.32,7.24,9.84,10.47,5.7,5.23,14.95,2.12,16.81-5.39.73-2.94-.29-5.31-2.14-7.43-7.38-8.4-14.72-16.84-22.26-25.09-2-2.14-2.14-3.58.16-5.29a9.67,9.67,0,0,0,.84-.85c3.34-3.22,4.51-3.3,7.65,0,4.58,4.87,9.06,9.85,13.49,14.86,3.11,3.51,6.25,7,9.07,10.76,6,8,5.64,15.36-1.34,22.59a43.25,43.25,0,0,1-8.8,7.11c-6.09,3.63-12.25,3.19-17.86-1.26a60.48,60.48,0,0,1-6.75-6.35c-6.44-7-12.78-14-19.14-21.06-2.42-2.68-2.37-3,.37-5.52,1.33-1.21,2.68-2.39,4-3.58A7.72,7.72,0,0,1,923.09,975.72Z"/><path class="cls-2" d="M883.2,1025.14l-3.52,3.76c-3.28,3.5-3.21,3.35-7.49,1.19-3.9-2-7.79-1.36-11.3,1.18a10.93,10.93,0,0,0-4.6,11.84,33.3,33.3,0,0,0,10.72,18c4.12,3.62,9.2,4.21,13.3,1.81,4.67-2.73,6.46-7,5.16-12.79-.56-2.51.16-3.56,2.71-4.14,7.58-1.73,7.73-1.52,8.28,6.22,1.11,15.64-17.51,25.27-29.28,20.84-13.41-5-23.36-21.83-20.74-35.92,2.87-15.41,22.65-24.38,34.26-14C881.44,1023.77,882.24,1024.36,883.2,1025.14Z"/><path class="cls-2" d="M1106.58,430.92c-1.43-1.9-2.23-2.92-3-4-3-4.1-3-4.11.08-8.09,4.76-6.18.48-16.32-7.68-17.13-9.46-.94-17.69,2.56-24.28,9.36-3.16,3.26-3.12,7.48-1.41,11.52,1.63,3.86,4.77,5.76,8.93,6a19.6,19.6,0,0,0,2.4.07c2.47-.17,3.26,1.07,3.39,3.4.4,7.34-.6,8.3-7.82,7.08-8.34-1.4-13.47-6.44-16.22-14.21s-1.94-15,3.65-21.27c9-10.16,20.23-14.19,33.67-11.76s21.69,19.69,15,31.51C1111.68,426.14,1109,428.24,1106.58,430.92Z"/><path class="cls-3" d="M138.41,806.91c5.41,0,6,.37,7.59,4.63q8,22.06,16,44.16c.65,1.82,2.5,4.45,0,5.58-1.94.88-4.74.2-7.06-.28-.86-.18-1.65-1.66-2.09-2.7-1-2.39-1.76-4.87-2.58-7.33a3.72,3.72,0,0,0-4-2.89c-4.79.08-9.58.06-14.37,0A3.55,3.55,0,0,0,128,851c-.66,2.3-1.55,4.53-2.3,6.8a6.18,6.18,0,0,1-5.49,4.4c-3.67.51-5.34-1.38-4.09-4.87,5.61-15.68,11.32-31.32,16.91-47A4.67,4.67,0,0,1,138.41,806.91Zm7.94,33-7-20.07a55.65,55.65,0,0,0-4.13,9.92l-3.45,10.15Z"/><path class="cls-2" d="M313.9,181.51c3.61,5.32,7,10.37,10.44,15.4,2.47,3.63,2.47,3.66-1.3,6.19-1.49,1-3,2-4.65,3.08A13.36,13.36,0,0,1,317,204.7c-9.18-13.44-18.28-26.93-27.56-40.3-1.64-2.36-1.17-3.53,1-5,7.64-5.1,15.18-10.35,22.78-15.51,3-2,3.65-1.87,5.7,1.23.44.67.85,1.36,1.33,2,1.23,1.62.94,2.78-.79,3.91-5,3.29-9.94,6.69-14.89,10.06-3,2.06-3.08,2.42-.93,5.4.82,1.13,1.64,2.26,2.39,3.44,2.47,3.85,2.51,3.86,6.38,1.2,3.62-2.49,7.29-4.91,10.86-7.47,1.93-1.38,3.44-1.35,4.76.74.42.67.91,1.31,1.4,1.95,1.49,2,1.32,3.56-.83,5C323.74,174.65,318.93,178,313.9,181.51Z"/><path class="cls-2" d="M67.63,530.7c.47-3.45.67-6.32,1.3-9.09.58-2.58,2.68-3.74,5.12-4.51,5.87-1.85,11.7-3.83,17.55-5.76l1.08-1.57a13.56,13.56,0,0,1-3-1.33c-4.51-3.47-8.9-7.1-13.42-10.56-1.88-1.44-2.71-3-2.07-5.4s1-5,1.61-8c1.31.88,2.16,1.34,2.88,1.95,7.13,6.11,14.1,12.4,21.41,18.28a23.08,23.08,0,0,0,8.46,4,119.56,119.56,0,0,0,13.85,2.45c2.73.38,3.62,1.72,3.07,4.3-.13.58-.15,1.19-.22,1.78-.46,3.94-1.32,4.61-5.26,3.94-4.13-.7-8.26-1.37-12.37-2.2-4.5-.91-8.72,0-12.87,1.65q-11.31,4.37-22.63,8.7C70.81,529.75,69.51,530.1,67.63,530.7Z"/><path class="cls-2" d="M820.15,101.54c3.81,1.88,6.87,3.25,9.78,4.91.65.37,1,1.69,1,2.61.44,5.87.75,11.75,1.13,17.62.07,1.06.27,2.1.5,3.84,1.75-1.06,3.09-1.78,4.33-2.65,4.23-3,8.44-6,12.61-9.12a4.58,4.58,0,0,1,5.52-.46c2.16,1.22,4.44,2.25,7.16,3.61a20.29,20.29,0,0,1-2.51,2.43c-7.72,5.15-15.6,10.06-23.15,15.45a24,24,0,0,0-6.3,7.29A135,135,0,0,0,824,159.95c-1,2.23-2.44,2.7-4.54,1.62-.53-.27-1.09-.49-1.63-.75-4.16-2-4.43-2.67-2.49-6.87a67,67,0,0,1,4-8.34c3.53-5.49,3.74-11.31,2.95-17.54-1-7.62-1.46-15.29-2.13-22.95C820.09,104.27,820.15,103.39,820.15,101.54Z"/><path class="cls-2" d="M304.45,999.65c-2.89-2.4-5.58-4.61-8.24-6.85-3.22-2.72-3.52-2.71-6.17.45q-11.73,14-23.48,28c-2.79,3.32-3.58,3.21-8.1-.83-2.43-2.17-2.3-3.84.09-6.61,8.15-9.44,16.19-19,24.35-28.39,1.52-1.75,1.13-2.89-.45-4.2-2.54-2.09-5-4.33-7.52-6.41-1.17-1-1.4-1.81-.42-3,.45-.53.79-1.15,1.2-1.71,2.36-3.25,3.68-3.5,6.83-.9,6.62,5.46,13.16,11,19.73,16.54,2.06,1.73,4.12,3.47,6.2,5.19,1.58,1.29,1.6,2.58.2,4S306,997.91,304.45,999.65Z"/><path class="cls-2" d="M769.34,1065.61a7.48,7.48,0,0,1,1.87,1.8,22,22,0,0,1,1.18,3.69c.61,1.91-.14,3.09-1.94,3.7q-4,1.33-8,2.6c-2.58.82-3.38,2.31-2.53,5,3.76,11.87,7.32,23.81,11.15,35.66.85,2.62.3,3.94-2.22,4.67-.57.16-1.11.44-1.67.66-4,1.52-5.14,1-6.52-3.34-3.63-11.4-7.17-22.82-10.76-34.22-1.32-4.19-1.35-4.2-5.66-2.86-2.47.77-4.94,1.56-7.39,2.39-1.9.65-3.1,0-3.69-1.85-.27-.86-.45-1.75-.79-2.57-1.05-2.51-.16-4,2.33-4.76q16.27-5.07,32.52-10.17C767.74,1065.86,768.24,1065.82,769.34,1065.61Z"/><path class="cls-2" d="M143.71,335.34c6.87,3.89,13.63,7.72,20.39,11.54,5.22,2.94,10.4,5.94,15.69,8.74,2.23,1.18,2.73,2.46,1.65,4.78-2.81,6-3.44,6.27-9.31,3-10.17-5.75-20.4-11.38-30.52-17.2-2.38-1.37-3.74-1.09-5,1.36s-2.85,5-4.2,7.6c-.93,1.75-2.07,2.32-3.85,1.18a19.26,19.26,0,0,0-2.38-1.27c-2.42-1.11-2.9-2.74-1.59-5.06q8.46-15,16.85-30c.91-1.63,1.93-1.93,3.65-1.06,5.86,2.94,5.89,2.88,2.8,8.61C146.6,330,145.21,332.57,143.71,335.34Z"/><path class="cls-2" d="M208.92,245.12c-2.9,3.14-5.61,5.93-8.14,8.87-1.41,1.64-2.48,1.77-4.19.36-4.44-3.67-4.62-4.48-.73-8.8,7.14-7.94,14.36-15.8,21.5-23.74,1.26-1.4,2.26-1.56,3.72-.26,6.28,5.6,5,4.57.77,9.3q-1.59,1.79-3.24,3.53c-2.51,2.63-2.51,3.16.08,5.53l24.13,22a38.81,38.81,0,0,1,2.86,2.63c1,1.12,2.9,3,2.61,3.49a20.29,20.29,0,0,1-5.12,6c-.65.49-3.13-.74-4.27-1.75-7.77-6.88-15.41-13.9-23.09-20.88Z"/><path class="cls-2" d="M815.35,100.07a52.54,52.54,0,0,1-2.79,6.55c-.31.53-2,.63-2.87.36-2.66-.81-5.24-1.9-7.86-2.89-3.4-1.28-3.78-1.16-5.05,2.24q-6.41,17.08-12.77,34.18c-1.67,4.48-1.69,4.48-6.2,2.72l-1.39-.55c-3.63-1.44-3.73-1.62-2.37-5.25q6.43-17.23,12.89-34.46c1.4-3.75,1.32-3.93-2.51-5.39-2.52-1-5-1.93-7.57-2.81-1.94-.67-2.26-1.87-1.69-3.72,1.8-5.84,2.19-6.07,7.9-3.93,9.9,3.7,19.81,7.38,29.7,11.14A12.38,12.38,0,0,1,815.35,100.07Z"/><path class="cls-2" d="M1148.23,628.46c-.08.05-.16.14-.25.15-7.52.89-8.37.14-8.37-7.34s0-7.61-7.56-7.69l-33.25-.36c-4,0-4.12-.21-4.08-4,.07-6.71-1-6.67,6.65-6.49,11.28.27,22.57.4,33.85.55,4.4.06,4.43,0,4.53-4.5.06-2.5.1-5,.11-7.49,0-2.09.91-3,3.09-3.06,6.47-.16,6.39-.22,6.35,6.22-.06,11.27,0,22.54,0,33.81Z"/><path class="cls-2" d="M113.4,565.66c-13-1.11-23.74-2.06-34.49-2.94-4.5-.37-4.88,0-5.19,4.66-.16,2.29-.37,4.58-.42,6.88s-1,3.14-3.32,3c-6.05-.24-6.33-.62-5.79-6.63.88-9.75,1.51-19.52,2.36-29.26.14-1.59.59-4.3,1.37-4.48a19.14,19.14,0,0,1,7,.2c.48.07,1.06,1.59,1,2.44,0,2.79-.36,5.58-.55,8.37-.25,3.65.22,4.25,3.77,4.54,8.16.65,16.33,1.25,24.5,1.9,4.38.35,8.75.8,13.14,1.07,2.18.13,2.92,1.09,2.85,3.24C119.46,566.23,119.51,566.23,113.4,565.66Z"/><path class="cls-2" d="M882.08,1007.83a83.43,83.43,0,0,1,7.19-5.3c.55-.33,2.36.53,3,1.32,5.38,7.06,10.62,14.22,15.9,21.35,2.32,3.12,4.74,6.17,6.92,9.39,1.49,2.2,2.87,2.23,4.88.68,5-3.84,10.1-7.47,15.07-11.31,2.15-1.66,3.63-1.61,5,.84a55.41,55.41,0,0,0,3.29,4.6l-29.11,21.67Z"/><path class="cls-2" d="M429.8,88.6c4.18,12.55,8.36,25,12.46,37.5,1.42,4.33,1.76,4.54,6.16,3,5.47-1.86,11-3.57,16.45-5.48,2.31-.81,3.46-.2,4.26,2.08,2,5.66,2,5.64-3.73,7.56l-24.69,8.18c-3.4,1.13-4.08.81-5.24-2.66q-7.25-21.69-14.46-43.4c-1.15-3.47-.82-4.07,2.67-5.18,1.71-.55,3.42-1.09,5.13-1.63A5,5,0,0,1,429.8,88.6Z"/><path class="cls-2" d="M576.74,109.24c.73,2.67-.6,3.7-3.39,4-9.24.85-18.46,1.87-27.7,2.8-4.18.42-4.44.21-4.86-3.9-1.55-15.49-3-31-4.63-46.47-.21-2.05.61-3,2.5-3.28l.59-.09c6.27-.93,6.86-.5,7.53,5.76q1.81,17,3.55,33.94c.37,3.59,1.06,4.15,4.51,3.77,5.36-.58,10.72-1.14,16.08-1.6S576.34,103.73,576.74,109.24Z"/><path class="cls-2" d="M1013.73,331.09l45.49-29.5c1.47,2.19,2.72,4.21,4.13,6.1s1.07,3-.9,4.31c-9.75,6.21-19.43,12.53-29.13,18.82-3.85,2.49-7.71,5-11.53,7.51-1.64,1.09-2.86,1-3.94-.78C1016.59,335.42,1015.2,333.38,1013.73,331.09Z"/><path class="cls-2" d="M1143.17,648.09c-17-1.33-32.11-2.56-47.22-3.66-2.57-.19-3.17-1.29-2.89-3.66.84-7,.86-7,7.89-6.4,14.31,1.17,28.62,2.27,42.94,3.21,3.07.2,4.11,1.42,3.66,4.29a2.36,2.36,0,0,0,0,.3C1147.35,648.33,1147.35,648.33,1143.17,648.09Z"/><path class="cls-2" d="M655.36,66.63c-1.25,14.81-2.54,29.61-3.7,44.42-.2,2.51-1.2,3.27-3.59,3-6.73-.68-7.12-1.14-6.53-8,1.21-14,2.34-28,3.62-42,.14-1.54.88-4.22,1.57-4.3,2.58-.29,5.59-.35,7.75.8,1.16.62.92,3.88,1.3,6Z"/><path class="cls-2" d="M72.82,700.39l37.74-7.46c4-.79,8-1.54,12-2.37,2.18-.45,3.44-.07,4,2.48,1.62,6.75,1.56,7-5.41,8.39-14.39,2.84-28.79,5.64-43.16,8.56-2.33.47-3.64.08-4-2.47C73.8,705.24,73.3,703,72.82,700.39Z"/><path class="cls-1" d="M606.63,558.89c1-1.24,1.83-2.1,2.49-3.06,18.33-26.58,39.48-50.53,65.77-69.56,33.64-24.35,71-36.44,112.79-33,28.29,2.3,54.68,11.12,79.4,24.9,7.31,4.08,14.27,8.8,21.33,13.33,5.74,3.68,9.8,9,13.75,14.45,16.58,22.9,30.07,47.31,37.26,74.89,13.35,51.21,2.23,96.69-31.53,137.17-25.63,30.73-58.85,47.79-97.5,55.27-35.21,6.81-68.92.75-101.63-12.77-31.27-12.92-58.74-31.78-84.13-53.89a371.1,371.1,0,0,1-41.94-42.72,24.39,24.39,0,0,0-2.21-2c-4.26,5.27-8.35,10.28-12.39,15.33-11.92,14.9-23.63,30-35.77,44.68-10.73,13-24.17,22.95-38.21,32-18.15,11.74-37.75,19.91-59.28,23-24.45,3.56-48,0-70.7-9.33-25.64-10.48-47.56-26.43-67.07-45.85-6.36-6.33-12.82-12.67-18.38-19.68-15.76-19.9-24.07-43.1-28.17-67.86-7-42.52,5.07-79.94,31-113.54,14.92-19.35,32.65-35.73,53.61-48.24,19.78-11.81,41.88-17.09,64.52-19.84,42.53-5.16,81.56,5.7,118.23,26.73,34.3,19.68,62.57,46.13,86.82,77.12C605.2,557.1,605.76,557.79,606.63,558.89Zm12.54,32.88c4.52,8.62,8.39,16.73,12.9,24.47,20.18,34.64,44.75,66.11,70.61,96.61,2.51,3,4.93,6.31,8.12,8.28,8.56,5.28,17.22,10.57,26.37,14.66,18.24,8.14,37.35,10.73,57,5.91,25.29-6.19,44.64-21.1,60.15-41.48a18,18,0,0,0,2.6-5.66c5.75-18.94,10.32-38.14,12.57-57.84,2.31-20.24,2.86-40.46-1.52-60.52-4.32-19.78-11.5-38.45-25.39-53.49C813.55,491.22,777,481.63,735.73,489c-25.19,4.48-45.74,18.22-63.89,35.75-17.71,17.11-31.56,37-42.59,59C627.26,587.61,625.13,591.32,619.17,591.77ZM430.07,742.89l13.45-.86a71.2,71.2,0,0,0,35.66-11.79,170.69,170.69,0,0,0,30.52-25.92c19.76-21.16,35.44-45.21,49.78-70.21,1.42-2.48,1.17-4.94.24-7.49-10.35-28.54-23.09-55.91-40.24-81.05-9.48-13.9-19.92-27-33.44-37.34-18.2-13.86-39-20.61-61.62-22.31q-51.79-3.89-80,39.75c-10.93,17-16.85,35.86-20.85,55.44-1.72,8.42-3.61,16.86-2.27,25.52,1.41,9.17,2.8,18.36,4.76,27.42,5.14,23.79,13.14,46.5,27,66.76C371.55,727.85,396.62,743,430.07,742.89Z"/><path class="cls-2" d="M607.94,220.08a33.43,33.43,0,0,0-2,3.27Q572,296.41,538.1,369.49c-9.49,20.46-19.06,40.89-28.4,61.42-1.83,4-4.29,5.73-8.73,5.65-12.49-.23-25-.13-37.47-.16h-3.71a26.29,26.29,0,0,1,1.19-4Q500.74,352.23,540.55,272c12.37-25,24.74-49.9,36.92-74.95,2.19-4.5,5.14-6.21,10.09-6.12,14.58.24,29.18.15,43.76,0,3.5,0,5.78,1.16,7.38,4.38Q670,258.57,701.42,321.69q27.61,55.5,55.26,111c.47.95.78,2,1.34,3.39a30.1,30.1,0,0,1-3.17.38c-13.39,0-26.78,0-40.17.13-4,.05-6.41-1.48-8.12-5.15Q663.71,339.21,620.7,247.1c-3.33-7.15-6.64-14.31-10-21.45C609.93,224,609,222.29,607.94,220.08Z"/><path class="cls-2" d="M546.39,918.92c7.67-1,15.86-1,21.36-7.95,3.17-4,4.45-8.78,5.5-14-5.73-.9-11.17-1.56-16.52-2.64-13.93-2.79-27.26-7.24-38.58-16.18-17.87-14.11-27.86-32.65-28.26-55.42-.52-29.81,17.85-54.79,47-65.56a127.41,127.41,0,0,1,34.32-7.89c2.35-.18,2.52-1.17,2.22-3.08C571.61,734.71,564,727.45,552,725.9c-.79-.1-1.59-.18-2.39-.24-3.46-.25-5-2.69-3.5-5.88a2.72,2.72,0,0,1,1.82-1.11,18.53,18.53,0,0,1,3.29-.09q37.16,0,74.33,0c2,0,3.68-.08,3.68,2.55,0,2.42-.67,4.19-3.42,4.82-3.87.88-7.86,1.63-11.46,3.22-7.33,3.24-11.31,9.1-12.14,17.19-.32,3.1,1.09,3.51,3.58,3.55a97.6,97.6,0,0,1,36.79,7.24c20.11,8.43,34.65,22.12,39.77,43.92,5.06,21.53,3.27,42.35-9.2,61.29-10.72,16.28-26.54,25.39-45,30-7.51,1.89-15.33,2.54-23,3.65-3.22.47-3.51.76-2.73,4C605,911.24,613.25,917.83,626,919c1.54.14,3.27-.14,3.73,2.11.56,2.73-.29,4-3.07,4q-38.36,0-76.72,0C545.76,925,545.28,924.15,546.39,918.92Zm27.78-96.7q0-30.42,0-60.84c0-3.94-.13-4.23-4.07-3.58a89.48,89.48,0,0,0-13.71,3c-15.62,5.21-27.69,14.55-32.13,31.09-1.92,7.16-2.56,14.75-3,22.19-1,14.79.6,29.35,6.18,43.23,4.34,10.79,10.54,20.18,22.17,24.11a194.71,194.71,0,0,0,20.54,5.21c3.79.84,4.07.4,4.07-3.56Q574.19,852.64,574.18,822.21Zm27.73,64.27a13.05,13.05,0,0,0,2.34.36c21.3-1,38.56-9.35,46.56-35.17,6.16-19.86,5.67-40.23-.54-60.21-3.53-11.35-10.09-20.55-20.74-26.42a71.46,71.46,0,0,0-21.75-7.34c-5.89-1.09-5.89-1-5.89,5.07q0,59.78,0,119.56C601.91,883.63,601.91,884.92,601.91,886.49Z"/><path class="cls-2" d="M551.9,977.54c0-7,.05-14,0-21,0-2.41.85-3.44,3.32-3.36,6.48.23,13,.09,19.44.55a14.32,14.32,0,0,1,12.64,8.79c4.32,9.57,4.61,19.35.41,29-2.81,6.48-8.07,9.78-15.06,10-5.88.21-11.78,0-17.67.14-2.42.05-3.1-1-3.08-3.25C551.94,991.52,551.9,984.53,551.9,977.54Zm15.73-16.14v.09c-.6,0-1.2,0-1.8,0-4.18-.1-4.32.11-4.36,4.3q-.11,11.82-.39,23.64c-.05,2.28.61,4.35,3,4.35a37.08,37.08,0,0,0,10.86-1.3c1.82-.57,3.69-2.9,4.35-4.84a32.08,32.08,0,0,0,.23-19.45c-.94-3.3-3-5.62-6.56-6.25C571.21,961.61,569.41,961.57,567.63,961.4Z"/><path class="cls-2" d="M498.51,967.55c-2.55.65-4-.17-5.1-2.92-1.75-4.5-11-5.21-14-1.3a3.48,3.48,0,0,0,1.07,5.39,31,31,0,0,0,5.78,2.36c3.58,1.22,7.29,2.13,10.79,3.55,5.41,2.19,7.82,6.57,8,12.27.16,6-1.91,10.87-7.49,13.56a23.81,23.81,0,0,1-21.39-.12c-4.79-2.28-7-6.62-8-11.65-.33-1.69.32-2.69,2.15-2.81,6.1-.41,5.53-1.28,8.4,3.73s10,6.2,14.62,2.59c3.6-2.83,3.06-7.33-1.19-9-2.6-1-5.37-1.54-8-2.47a46.24,46.24,0,0,1-8.28-3.35c-5-2.94-6.8-7.56-6.07-13.28s3.83-9,9.11-10.7a24.35,24.35,0,0,1,16.16.38c4.5,1.63,7,5.08,8.28,9.57.9,3.26.24,4.08-3.21,4.19C499.6,967.57,499.1,967.55,498.51,967.55Z"/><path class="cls-2" d="M427.78,977.61c0-6.69,0-13.38,0-20.07,0-4.1.2-4.29,4.15-4.3q12.73,0,25.46-.06c3.73,0,4.45.65,4.49,3.93.05,3.72-.51,4.31-4.33,4.33-5.79,0-11.58.08-17.37,0-2.31,0-3.19.88-3.17,3.2.08,8.3-1,7.59,7.47,7.59,4.09,0,8.19.06,12.28,0,2.19,0,3.58.71,3.27,3.09-.27,2.09,1,5.1-3.16,5-5.39-.14-10.78.11-16.17,0-2.61,0-3.94.82-3.7,3.65a31.07,31.07,0,0,1-.22,4.48c-.27,4.43.9,5.58,5.26,5.48,5.79-.13,11.58,0,17.36-.26,3.47-.17,3.27,1.89,3.34,4.21s-.3,3.93-3.37,3.88c-9.38-.16-18.77-.12-28.15,0-2.59,0-3.53-.89-3.48-3.5.13-6.89,0-13.78,0-20.67Z"/><path class="cls-2" d="M697.34,977.74c-1.05,5.46-1.63,10.84-3.18,15.93-1.94,6.34-6.71,9.31-12.88,9.08s-10.78-3.91-12.54-10.15a52.74,52.74,0,0,1,.13-29.83c1.91-6.42,6.3-9.92,12.54-10.14a12.35,12.35,0,0,1,12.7,9C695.71,966.83,696.29,972.32,697.34,977.74Zm-9.6-.81a123,123,0,0,0-2-12.65c-.34-1.37-2.46-2.86-4-3.22-2.23-.51-3.75,1.34-4.22,3.42a62.39,62.39,0,0,0-.23,25.83c.46,2.33,1.69,4.37,4.61,4.23s4-2.14,4.4-4.52C686.91,985.9,687.22,981.74,687.74,976.93Z"/><path class="cls-2" d="M643.91,992.14H657.2c3.46,0,4,.54,4.06,3.93.05,5.66.05,5.66-5.67,5.66H630.4c.53-2.33.53-4.44,1.46-6a96.19,96.19,0,0,1,7.8-11.24c2.84-3.47,6.2-6.49,9.27-9.78,2.18-2.34,3.6-5,3.29-8.37a5.77,5.77,0,0,0-5-5.47,6.1,6.1,0,0,0-6.46,4.24c-.39,1.05-1.29,2.69-2,2.71a27.09,27.09,0,0,1-6.67-.9c-.25-.06-.37-1.46-.28-2.21a12.86,12.86,0,0,1,4.57-8.48c5.22-4.45,14-4.83,19.55-.8,5.08,3.69,6.93,10.68,3.82,17.25-1.67,3.52-4.38,6.61-6.89,9.66-1.76,2.15-4,3.86-6,5.87A42.78,42.78,0,0,0,643.91,992.14Z"/><path class="cls-2" d="M532.8,982c0,5.59-.08,11.19,0,16.78,0,2.21-.73,3-2.92,3-6.42.15-6.48.22-6.52-6.14-.06-10.18-.1-20.37,0-30.56,0-2.76-.94-3.8-3.65-3.64-2.39.14-4.79,0-7.19,0-3.11.11-3-2.21-3-4.12s-.27-4.19,2.87-4.18c10.19,0,20.37.07,30.56,0,3.93,0,3,2.7,3.22,5,.19,2.55-1,3.4-3.38,3.3-2.19-.09-4.4.09-6.59-.06-2.6-.17-3.61.93-3.58,3.49.08,5.69,0,11.38,0,17.08Z"/><path class="cls-2" d="M767.82,953.74a11.34,11.34,0,0,1-1.95,10.16,64.08,64.08,0,0,0-12.71,34.65c-.17,2.46-1.06,3.46-3.46,3.2a7.73,7.73,0,0,0-1.8,0c-2.8.36-3.73-.77-3.4-3.59a70.18,70.18,0,0,1,11.34-31.21c.52-.79,1-1.63,1.83-3.08H743.43c-5.16,0-5.16,0-5.13-5.06,0-.9,0-1.8,0-2.7,0-1.58.59-2.38,2.29-2.38C749.58,953.76,758.56,953.74,767.82,953.74Z"/><path class="cls-2" d="M716.43,967.48l-10.32,6.7-.89-.46a52,52,0,0,1,.11-7.35,4.78,4.78,0,0,1,2.35-2.76,25.82,25.82,0,0,0,9.61-8.77c1.52-2.46,4.21-2.45,6.69-2,.58.11,1.32,1.47,1.32,2.25.08,14.68,0,29.35.07,44,0,2-1,2.52-2.77,2.61-6.18.31-6.17.35-6.17-5.76C716.43,986.62,716.43,977.24,716.43,967.48Z"/><path class="cls-2" d="M606.69,997.23c0,4.51,0,4.51-4,4.51-4.78,0-5-.23-5-4.68,0-4.65.29-4.95,4.5-4.95C606.67,992.11,606.68,992.11,606.69,997.23Z"/><path class="cls-2" d="M676.91,581.72c4-10.13,7.61-20.28,12.07-30.06,1.41-3.1,4.74-5.66,7.74-7.64a51.16,51.16,0,0,1,28.34-8.25c37.37-.31,74.73-.76,112.09-1.14,4.8,0,4.82,0,4.82,4.82,0,5.8-.13,11.59,0,17.38.08,2.81-1,3.64-3.67,3.61-10.19-.1-20.38,0-30.57-.09-2.65,0-3.69.77-3.93,3.5-2,22.68-4.25,45.34-6.31,68a52.22,52.22,0,0,0,2.72,23c3.42,9.29,10.59,14.26,19,13.26a20.29,20.29,0,0,0,17.63-17.75c.28-2.24.77-4.16,3.5-3.56.88.19,2.2,1.61,2.14,2.38-1.23,15.32-6.81,28.64-18.53,39-4.42,3.91-10,4.93-15.53,5.64-10,1.3-19.41-.15-26.82-7.82-5.37-5.56-6.61-12.79-7.73-20-1.68-10.88-.58-21.66.57-32.53,1.62-15.39,2.44-30.86,3.59-46.3.6-8,1.22-15.93,1.77-23.9.26-3.73-.15-4.11-4-4.11q-13.64,0-27.28,0c-3.85,0-4.22.39-4.58,4.19-2.42,25.65-4.67,51.32-7.36,76.95-1.07,10.21-2.92,20.36-4.79,30.46a34.64,34.64,0,0,1-10.45,18.84,18.72,18.72,0,0,1-23.69,2c-6.94-4.65-9.53-13.86-5.92-22.1a38.47,38.47,0,0,1,5-8.15c21.32-27.21,31.43-58.2,31.44-92.62,0-9.39-.27-9.66-9.75-9.47-15.7.33-27.67,6.78-34.54,21.43C682.23,584.29,681.61,584.36,676.91,581.72Z"/><path class="cls-2" d="M444,618.35H396.32c-4.59,0-4.72.09-4.35,4.75,1.09,13.72,6.63,24.89,19.22,31.45,8.42,4.38,17.36,4.3,26.14.91,5.49-2.12,9-6.53,11.56-11.65.68-1.33,1.21-2.74,1.81-4.11,1.65-3.81,2.33-4.32,6.37-3.7,11.35,1.75,22.67,3.63,34,5.41,2.59.41,2.62,1.74,1.8,3.82C483.31,669.49,465.89,684,440,688a95.86,95.86,0,0,1-43-2.82c-19.5-5.92-33.29-18.27-40.74-37.21-11.23-28.55-11.61-57.1,1.54-85.21,11.22-24,30.31-36.85,56.67-39.07,16.45-1.39,32.08,1.11,46.47,9.55,17.16,10.07,26.66,25.64,31.54,44.44,3.18,12.27,4,24.82,4.18,37.43.05,2.88-1.56,3.21-3.82,3.21q-24.43,0-48.86,0Zm-20.61-25.77h5.09c7.49,0,15,0,22.47,0,3.47,0,4.08-.66,3.49-4.12a82,82,0,0,0-2.59-12.27c-6.57-19.65-29.74-27.12-46.07-14.94-8.8,6.57-12.36,15.86-13.3,26.42-.42,4.72-.28,4.89,4.52,4.91C405.79,592.6,414.58,592.58,423.37,592.58Z"/></svg>